<svg xmlns="http://www.w3.org/2000/svg" width="19.437" height="23.923" viewBox="0 0 19.437 23.923">
  <path id="bin-icon" d="M5.994,9.4V24.356a1.5,1.5,0,0,0,1.5,1.5H20.946a1.5,1.5,0,0,0,1.5-1.5V9.4H5.994ZM10.479,22.86h-1.5V12.394h1.5Zm2.99,0h-1.5V12.394h1.5Zm2.99,0h-1.5V12.394h1.5Zm2.99,0h-1.5V12.394h1.5ZM22.815,4.918H17.955V3.049a1.125,1.125,0,0,0-1.121-1.121H11.6a1.125,1.125,0,0,0-1.121,1.121V4.918H5.62A1.125,1.125,0,0,0,4.5,6.04V7.909H23.936V6.04A1.125,1.125,0,0,0,22.815,4.918Zm-6.354,0H11.975V3.442H16.46V4.918Z" transform="translate(-4.499 -1.928)" fill="#224643"/>
</svg>
