<?xml version="1.0" encoding="UTF-8"?>
<svg id="Layer_2" data-name="Layer 2" xmlns="http://www.w3.org/2000/svg" viewBox="0 0 234.33 234.12">
  <defs>
    <style>
      .cls-1 {
        fill: #FFF5F9;
        stroke-width: 0px;
      }
    </style>
  </defs>
  <g id="Layer_1-2" data-name="Layer 1">
    <g>
      <path class="cls-1" d="m234.33,124.42c-.43,3.23-.79,6.46-1.29,9.68-4.53,29.65-18.39,54.09-41.35,73.31-16.2,13.56-34.89,21.92-55.72,25.22-62.09,9.82-120.68-29.99-133.27-91.68C-5.93,98.67,6.31,62.07,37.1,31.76c1.7-1.67,3.63-2.98,3.63-5.9,0-2.27,1.88-3.72,3.89-4.7,3.7-1.8,7.3-3.83,11.11-5.34,9.85-3.91,19.64-8.1,29.76-11.2,7.21-2.21,14.91-2.85,22.39-4.19.82-.15,1.64-.29,2.46-.44,4.58,0,9.15,0,13.73,0,2.41.3,4.82.64,7.23.89,5.43.57,8.21,5.28,5.99,10.26-.9,2.01-1.83,4.01-2.79,6-1.03,2.14-2.8,2.92-4.63,2.11-1.84-.82-2.52-2.62-1.65-4.8.87-2.18,1.89-4.3,2.94-6.67-22.71-2.79-44.04,1.06-64.65,11.39,1.89,2.03,3.6,3.84,5.28,5.66,3.87,4.21,3.03,8.78-2.1,11.33-3.68,1.83-7.37,3.64-11.08,5.41-3.51,1.67-5.97,1.21-8.66-1.58-1.79-1.86-3.53-3.76-5.65-6.03-4.2,4.51-8.48,8.73-12.32,13.32-8.15,9.71-14.27,20.65-18.5,32.61-.24.69.11,1.82.57,2.47.73,1.05,1.83,1.82,2.69,2.79,1.5,1.69,1.54,3.51.2,4.92-1.31,1.38-3.18,1.39-4.91.01-.41-.33-.8-.68-1.23-1.05-12.69,43.9,5.76,100.73,57.99,126.96,1.61-1.73,3.28-3.6,5.05-5.37,1.92-1.92,3.89-2.07,5.41-.55,1.49,1.49,1.28,3.46-.6,5.41-1,1.05-2.02,2.07-3.03,3.11-.05.05-.05.14-.21.61,35.03,13.13,68.94,11.17,100.58-9.05,35.07-22.4,51.43-55.46,51.65-97.05-11.46-1.19-20.93-5.77-28.79-13.92-2.13,1.61-4.24,4.92-7.03,1.76-2.98-3.37,1.1-5.1,2.45-7.26-1.44-2.9-2.84-5.68-4.21-8.48-.83-1.69-2.14-2.51-4.03-2.38-5.82.4-11.64.79-17.76,1.2-1.16,5.62-4.59,9.89-11.24,10.64-5.16.58-9.31-1.46-11.99-5.92-2.94-4.89-2.4-9.73.88-14.47-1.99-1.8-4.1-3.52-6-5.44-10.01-10.13-15.14-22.3-15.02-36.58,0-1.06.29-2.45.99-3.1.75-.69,2.42-1.24,3.2-.86,1.09.54,2.23,1.91,2.45,3.09.53,2.82.31,5.79.8,8.62,2.11,12.34,8.49,22.01,18.71,29.16.72.5,1.83.75,2.71.65,4.89-.59,8.75,1.11,11.93,4.8.71.82,1.97,1.62,3,1.65,5.15.12,10.34.31,15.45-.16,5.71-.52,9.95,1.27,12.25,6.53,3.37,7.69,8.31,13.96,15.55,18.33,4.43,2.67,9.2,4.48,14.34,4.96,3.91.36,6.49,2.21,8.06,5.68v12.81ZM55.24,35.6c3.92-1.92,7.76-3.8,11.81-5.78-2.71-2.89-5.18-5.53-7.68-8.2-3.95,1.93-7.74,3.78-11.8,5.76,2.66,2.85,5.12,5.49,7.68,8.22Zm100.5,52.33c3.03,0,5.7-2.63,5.72-5.63.02-2.93-2.7-5.71-5.65-5.77-3.09-.06-5.8,2.66-5.77,5.81.03,3.08,2.6,5.6,5.69,5.59Z"/>
      <path class="cls-1" d="m120.85,111.78c-.13,3.76-1.57,6.07-4.12,7.66-4.92,3.05-9.82,6.13-14.83,9.02-5.22,3.01-10.58.77-12.16-5.04-1.71-6.31-3.31-12.66-4.87-19.01-1.07-4.35.14-7.45,3.89-9.81,4.83-3.04,9.69-6.04,14.62-8.92,4.65-2.71,10.06-.9,11.76,3.77.76,2.09.21,3.87-1.48,4.73-1.69.86-3.46.33-4.57-1.69-.78-1.43-1.55-1.35-2.73-.63-4.54,2.8-9.08,5.59-13.66,8.3-1.22.72-1.45,1.57-1.12,2.84,1.58,6.11,3.11,12.24,4.66,18.35.36,1.43,1.07,1.92,2.46,1.07,4.67-2.87,9.35-5.73,14.04-8.55,1.09-.66,1.37-1.42.97-2.66-.54-1.66-.89-3.38-1.28-5.09-.52-2.29.36-4.06,2.24-4.57,1.97-.54,3.7.45,4.32,2.68.76,2.71,1.36,5.45,1.87,7.54Z"/>
      <path class="cls-1" d="m167.76,15.46c.37.06,1.13.11,1.86.29,6.34,1.58,12.69,3.14,19.02,4.78,6.3,1.63,8.11,7.1,4.07,12.25-2.82,3.59-5.74,7.11-8.54,10.71-2.07,2.67-4.68,3.74-8.01,3.18-4.87-.83-9.77-1.53-14.63-2.44-4.8-.89-7.25-4.86-5.81-9.51,1.5-4.86,3.16-9.68,4.87-14.48,1.14-3.18,3.6-4.81,7.16-4.8Zm20.42,12c-7.25-1.81-14.07-3.51-21.06-5.26-1.71,5.16-3.35,10.07-5.04,15.17,5.14.85,9.92,1.68,14.72,2.4.63.09,1.6-.16,1.97-.61,3.1-3.74,6.1-7.56,9.4-11.7Z"/>
      <path class="cls-1" d="m83.3,162.88c-.59,1.37-.98,2.87-1.81,4.07-2.85,4.13-5.82,8.18-8.82,12.21-2.23,2.98-4.84,3.81-8.45,2.65-4.12-1.33-8.23-2.71-12.28-4.22-4.79-1.8-6.31-6.54-3.41-10.72,2.85-4.13,5.82-8.18,8.83-12.2,2.32-3.11,4.92-3.92,8.64-2.73,4.05,1.3,8.08,2.68,12.08,4.12,3.24,1.16,4.91,3.54,5.22,6.82Zm-29.37,8.17c4.12,1.42,7.98,2.77,11.86,4.04.45.15,1.31-.02,1.56-.35,2.94-3.93,5.81-7.92,8.82-12.08-4.16-1.41-8.01-2.77-11.9-3.99-.49-.15-1.46.22-1.79.65-2.83,3.76-5.56,7.59-8.56,11.73Z"/>
      <path class="cls-1" d="m217.27,70.53c-.87-.44-2.62-1.03-4.02-2.09-3.66-2.74-7.19-5.64-10.72-8.54-3.57-2.94-4.1-6.42-1.64-10.29,1.02-1.6,2.07-3.2,3.17-4.75,2.44-3.44,5.43-4.44,9.34-2.97,3.91,1.47,7.8,3.03,11.63,4.68,3.86,1.66,5.4,5.27,3.96,9.22-1.25,3.43-2.62,6.81-4.04,10.17-1.24,2.94-3.5,4.51-7.68,4.55Zm1.15-6.66c1.5-3.78,2.87-7.24,4.31-10.86-4.34-1.73-8.39-3.35-12.53-5-1.39,2.08-2.67,4.01-4.04,6.06,4.13,3.3,8.07,6.45,12.26,9.8Z"/>
      <path class="cls-1" d="m165.18,128.17c-.04-7.95,6.33-14.37,14.3-14.43,7.89-.06,14.44,6.4,14.5,14.3.06,7.81-6.49,14.41-14.37,14.48-7.86.07-14.4-6.43-14.43-14.35Zm14.34-7.58c-4.2.01-7.5,3.33-7.48,7.54.01,4.16,3.41,7.55,7.54,7.52,4.11-.02,7.56-3.49,7.54-7.58-.02-4.14-3.43-7.49-7.6-7.48Z"/>
      <path class="cls-1" d="m168.59,181.65c.28-3.67.59-7,.75-10.33.03-.56-.46-1.2-.85-1.71-1.11-1.47-1.24-2.95-.05-4.38,1.19-1.43,2.73-1.57,4.32-.74,2.12,1.09,3.53,2.84,3.43,5.25-.19,4.64-.43,9.29-1.05,13.89-.51,3.73-4.56,5.98-8.23,4.68-4.59-1.62-9.09-3.49-13.57-5.4-2.44-1.04-3.87-3.06-3.74-5.76.23-4.49.48-8.98,1.06-13.43.48-3.66,4.39-5.9,7.95-4.89,1.73.49,2.8,1.65,2.75,3.47-.04,1.69-1.04,2.82-2.72,3.24-.43.11-.87.15-1.43.25-.25,3.33-.55,6.59-.68,9.85-.02.54.55,1.41,1.06,1.63,3.5,1.49,7.05,2.85,10.98,4.41Z"/>
      <path class="cls-1" d="m119.06,179.73c6.89.01,12.45,5.54,12.54,12.45.09,6.88-5.69,12.7-12.59,12.68-6.82-.01-12.47-5.64-12.54-12.5-.07-6.94,5.61-12.64,12.58-12.63Zm5.69,12.59c.03-3.02-2.57-5.69-5.6-5.74-3.07-.05-5.71,2.46-5.8,5.51-.09,3.1,2.61,5.9,5.69,5.9,2.97,0,5.68-2.7,5.71-5.68Z"/>
      <path class="cls-1" d="m65.55,82.22c.02,7.02-5.58,12.6-12.6,12.57-6.87-.04-12.49-5.63-12.53-12.49-.04-6.86,5.83-12.71,12.67-12.63,6.89.08,12.44,5.67,12.46,12.55Zm-12.45,5.71c3.09-.03,5.6-2.59,5.59-5.69-.01-3.04-2.62-5.68-5.63-5.71-3.01-.03-5.86,2.86-5.78,5.87.09,3,2.78,5.57,5.82,5.53Z"/>
      <path class="cls-1" d="m216.3,25.17c-5.92.04-10.8-4.79-10.81-10.71-.01-5.91,4.87-10.79,10.77-10.77,5.79.02,10.64,4.83,10.72,10.61.08,5.87-4.79,10.83-10.68,10.87Zm-.02-6.87c1.99-.03,3.79-1.82,3.82-3.81.03-2.07-1.87-3.97-3.94-3.93-2.1.04-3.88,1.94-3.79,4.05.09,2.02,1.89,3.72,3.91,3.69Z"/>
      <path class="cls-1" d="m91.48,50.5c-.36,1.22-.45,1.83-.71,2.37-1.12,2.32-2.23,4.66-3.46,6.92-1.05,1.94-2.84,2.51-4.61,1.65-1.62-.79-2.38-2.61-1.56-4.46,1.13-2.56,2.4-5.08,3.78-7.52.81-1.43,2.26-2.3,3.85-1.49,1.12.57,1.92,1.77,2.71,2.53Z"/>
      <path class="cls-1" d="m36.18,121.71c-.43.46-1.1,1.61-2.1,2.21-2.14,1.28-4.42,2.34-6.7,3.38-2.18.99-4.01.41-4.88-1.37-.87-1.79-.22-3.59,1.87-4.72,2.2-1.19,4.44-2.33,6.72-3.34,2.68-1.18,5.25.42,5.09,3.84Z"/>
      <path class="cls-1" d="m109.74,161.42c-1.16-1.07-2.65-1.8-2.88-2.82-.26-1.15.2-3.16,1.06-3.74,2.56-1.71,5.42-3.02,8.27-4.26,1.42-.61,3.15-.19,3.7,1.31.43,1.17.5,3.43-.17,3.88-3.03,2.06-6.39,3.66-9.98,5.62Z"/>
      <path class="cls-1" d="m197.61,150.05c1.11.54,1.96.75,2.54,1.27,1.36,1.2,2.68,2.47,3.86,3.84,1.35,1.57,1.27,3.44-.12,4.69-1.43,1.29-3.08,1.36-4.53.13-1.49-1.27-3-2.62-4.07-4.23-.58-.88-.64-2.5-.25-3.52.36-.91,1.66-1.46,2.56-2.17Z"/>
      <path class="cls-1" d="m146.25,201.42c1.03.44,1.78.56,2.25.99,1.52,1.38,3.04,2.78,4.35,4.35,1.17,1.4,1.03,3.04-.25,4.34-1.36,1.38-3.03,1.52-4.52.23-1.49-1.29-3.04-2.63-4.12-4.24-.59-.88-.65-2.53-.24-3.55.37-.92,1.7-1.46,2.53-2.11Z"/>
      <path class="cls-1" d="m66.11,135.48c-1.11-.54-1.96-.76-2.55-1.28-1.32-1.15-2.57-2.38-3.73-3.69-1.37-1.55-1.32-3.4-.05-4.74,1.24-1.29,3.22-1.42,4.73-.1,1.43,1.25,2.92,2.54,3.93,4.1.58.9.66,2.53.25,3.55-.36.92-1.69,1.46-2.58,2.17Z"/>
      <path class="cls-1" d="m150.05,132.32c-.52.65-1.08,1.94-2.01,2.34-.95.41-2.56.34-3.37-.24-1.7-1.22-3.35-2.74-4.46-4.49-.59-.94-.46-2.95.2-3.87.59-.82,2.86-1.48,3.5-1.01,2.15,1.58,3.92,3.69,5.79,5.64.22.23.17.72.35,1.62Z"/>
      <path class="cls-1" d="m109.56,62c1.17.61,2.13.93,2.85,1.54,1.22,1.03,2.33,2.2,3.39,3.38,1.44,1.6,1.43,3.58.09,4.91-1.28,1.26-3.22,1.33-4.74,0-1.37-1.21-2.82-2.43-3.79-3.93-.6-.93-.78-2.53-.42-3.58.33-.94,1.66-1.53,2.61-2.32Z"/>
    </g>
  </g>
</svg>