<svg xmlns="http://www.w3.org/2000/svg" xmlns:xlink="http://www.w3.org/1999/xlink" width="64" zoomAndPan="magnify" viewBox="0 0 48 48" height="64" preserveAspectRatio="xMidYMid meet" version="1.0"><defs><clipPath id="190ce162f8"><path d="M 2.753906 2.476562 L 31.425781 2.476562 L 31.425781 44.355469 L 2.753906 44.355469 Z M 2.753906 2.476562 " clip-rule="nonzero"/></clipPath><clipPath id="6e91aa40b0"><path d="M 19.324219 14.3125 L 45.234375 14.3125 L 45.234375 36.671875 L 19.324219 36.671875 Z M 19.324219 14.3125 " clip-rule="nonzero"/></clipPath></defs><g clip-path="url(#190ce162f8)"><path fill="#ffffff" d="M 20.875 25.554688 L 20.878906 25.546875 L 20.882812 25.535156 C 22.027344 22.65625 23.46875 19.882812 25.167969 17.296875 L 25.203125 17.242188 L 25.226562 17.183594 C 25.277344 17.054688 25.378906 16.867188 25.570312 16.707031 C 25.71875 16.574219 25.894531 16.480469 26.085938 16.4375 L 26.148438 16.417969 C 28.964844 15.398438 30.226562 13.585938 30.785156 12.167969 C 30.816406 12.101562 30.839844 12.035156 30.863281 11.96875 C 31.335938 10.667969 31.289062 9.21875 30.742188 7.992188 C 29.945312 6.214844 28.277344 5.363281 26.167969 5.65625 C 25.707031 5.726562 25.226562 5.664062 24.773438 5.476562 L 24.6875 5.441406 C 24.59375 5.402344 24.515625 5.367188 24.449219 5.332031 L 24.394531 5.304688 L 24.335938 5.289062 C 24.265625 5.265625 24.183594 5.238281 24.089844 5.199219 L 24.003906 5.164062 C 23.550781 4.976562 23.164062 4.683594 22.882812 4.316406 C 21.578125 2.625 19.792969 2.066406 17.984375 2.777344 C 16.734375 3.273438 15.6875 4.277344 15.113281 5.535156 C 14.480469 6.925781 14.011719 9.183594 15.375 12.015625 L 15.40625 12.074219 C 15.617188 12.410156 15.648438 12.835938 15.496094 13.210938 L 15.472656 13.265625 L 15.460938 13.320312 C 14.8125 16.386719 13.867188 19.40625 12.652344 22.296875 C 11.925781 24.023438 11.097656 25.71875 10.183594 27.363281 C 9.96875 27.742188 9.75 28.125 9.527344 28.5 C 9.277344 28.914062 9.027344 29.328125 8.769531 29.734375 L 8.738281 29.785156 L 8.714844 29.835938 C 8.664062 29.964844 8.5625 30.15625 8.371094 30.320312 C 8.222656 30.449219 8.046875 30.542969 7.859375 30.585938 L 7.792969 30.605469 C 6.046875 31.238281 4.898438 32.175781 4.144531 33.132812 C 3.816406 33.546875 3.5625 33.96875 3.367188 34.371094 C 3.25 34.605469 3.15625 34.835938 3.078125 35.054688 C 2.605469 36.355469 2.652344 37.804688 3.199219 39.03125 C 3.824219 40.429688 4.988281 41.253906 6.480469 41.398438 C 6.890625 41.4375 7.320312 41.425781 7.773438 41.359375 C 7.804688 41.355469 7.835938 41.351562 7.867188 41.351562 C 8.296875 41.304688 8.746094 41.375 9.167969 41.546875 L 9.253906 41.582031 C 9.351562 41.621094 9.425781 41.65625 9.492188 41.691406 L 9.546875 41.71875 L 9.605469 41.738281 C 9.679688 41.757812 9.757812 41.785156 9.851562 41.824219 L 9.9375 41.859375 C 10.359375 42.03125 10.726562 42.300781 11.003906 42.632812 C 11.027344 42.65625 11.042969 42.679688 11.0625 42.703125 C 11.359375 43.089844 11.675781 43.414062 12.019531 43.679688 C 13.175781 44.585938 14.558594 44.792969 15.957031 44.242188 C 17.210938 43.75 18.253906 42.746094 18.828125 41.488281 C 19.335938 40.375 19.734375 38.703125 19.175781 36.628906 C 19.074219 36.25 18.941406 35.859375 18.769531 35.457031 C 18.714844 35.324219 18.652344 35.1875 18.589844 35.050781 L 18.570312 35.007812 L 18.535156 34.949219 L 18.511719 34.90625 C 18.320312 34.578125 18.296875 34.167969 18.445312 33.8125 L 18.46875 33.753906 L 18.480469 33.691406 C 18.921875 31.453125 19.53125 29.234375 20.300781 27.082031 C 20.484375 26.566406 20.675781 26.058594 20.875 25.554688 Z M 29.632812 8.53125 C 30.050781 9.464844 30.085938 10.570312 29.726562 11.558594 C 29.300781 12.738281 28.273438 14.328125 25.796875 15.234375 C 25.570312 15.292969 25.351562 15.390625 25.144531 15.511719 L 25.125 15.515625 C 25.023438 15.546875 24.910156 15.589844 24.792969 15.640625 C 24.675781 15.691406 24.554688 15.75 24.433594 15.824219 C 24.304688 15.894531 24.1875 15.988281 24.066406 16.070312 C 23.949219 16.171875 23.824219 16.265625 23.71875 16.375 C 23.609375 16.488281 23.496094 16.59375 23.398438 16.71875 L 23.253906 16.894531 C 23.203125 16.957031 23.164062 17.019531 23.121094 17.082031 C 23.035156 17.203125 22.949219 17.324219 22.882812 17.449219 C 22.8125 17.570312 22.742188 17.683594 22.683594 17.800781 C 22.628906 17.914062 22.578125 18.023438 22.527344 18.121094 C 22.476562 18.21875 22.441406 18.316406 22.410156 18.398438 C 22.375 18.480469 22.347656 18.554688 22.324219 18.613281 C 22.277344 18.730469 22.25 18.800781 22.25 18.800781 C 22.25 18.800781 22.292969 18.742188 22.367188 18.640625 C 22.40625 18.585938 22.453125 18.527344 22.503906 18.457031 C 22.554688 18.386719 22.613281 18.304688 22.6875 18.226562 C 22.757812 18.144531 22.832031 18.054688 22.914062 17.964844 C 22.992188 17.871094 23.089844 17.785156 23.179688 17.691406 C 23.269531 17.597656 23.375 17.507812 23.476562 17.421875 C 23.53125 17.378906 23.578125 17.332031 23.632812 17.292969 L 23.800781 17.175781 L 23.8125 17.167969 C 22.21875 19.675781 20.851562 22.339844 19.753906 25.101562 L 19.75 25.109375 C 18.742188 27.648438 17.957031 30.292969 17.402344 32.972656 L 17.386719 32.90625 L 17.351562 32.703125 C 17.339844 32.636719 17.335938 32.570312 17.328125 32.503906 C 17.316406 32.367188 17.300781 32.234375 17.304688 32.101562 C 17.304688 31.972656 17.292969 31.84375 17.304688 31.722656 C 17.3125 31.597656 17.316406 31.484375 17.324219 31.375 C 17.328125 31.269531 17.34375 31.171875 17.355469 31.082031 C 17.367188 30.996094 17.378906 30.917969 17.386719 30.855469 C 17.402344 30.730469 17.414062 30.660156 17.414062 30.660156 C 17.414062 30.660156 17.386719 30.726562 17.335938 30.84375 C 17.3125 30.902344 17.28125 30.972656 17.246094 31.054688 C 17.210938 31.140625 17.171875 31.234375 17.140625 31.339844 C 17.105469 31.445312 17.066406 31.558594 17.023438 31.679688 C 16.984375 31.800781 16.957031 31.933594 16.921875 32.070312 C 16.882812 32.203125 16.859375 32.347656 16.835938 32.496094 C 16.824219 32.570312 16.808594 32.644531 16.800781 32.722656 L 16.78125 32.953125 C 16.761719 33.105469 16.765625 33.261719 16.769531 33.417969 C 16.765625 33.574219 16.789062 33.726562 16.804688 33.878906 C 16.832031 34.027344 16.851562 34.175781 16.894531 34.3125 C 16.925781 34.449219 16.976562 34.578125 17.019531 34.699219 C 17.070312 34.816406 17.117188 34.925781 17.175781 35.019531 C 17.21875 35.105469 17.269531 35.175781 17.3125 35.238281 C 17.359375 35.367188 17.417969 35.492188 17.488281 35.605469 C 18.625 37.988281 18.25 39.84375 17.726562 40.984375 C 17.292969 41.941406 16.496094 42.707031 15.546875 43.082031 C 14.152344 43.628906 13.109375 43.074219 12.402344 42.355469 C 12.390625 42.316406 12.378906 42.277344 12.367188 42.234375 C 12.316406 42.070312 12.234375 41.839844 12.109375 41.578125 C 11.984375 41.320312 11.816406 41.03125 11.601562 40.75 C 11.492188 40.609375 11.371094 40.476562 11.246094 40.34375 L 11.214844 40.3125 L 11.191406 40.292969 L 11.050781 40.164062 C 10.988281 40.109375 10.90625 40.042969 10.835938 39.988281 C 10.6875 39.871094 10.539062 39.773438 10.386719 39.683594 C 10.234375 39.59375 10.078125 39.515625 9.925781 39.453125 C 9.773438 39.386719 9.625 39.332031 9.480469 39.289062 C 9.339844 39.242188 9.203125 39.210938 9.074219 39.183594 C 8.820312 39.132812 8.605469 39.113281 8.457031 39.101562 C 8.308594 39.09375 8.222656 39.097656 8.222656 39.097656 C 8.222656 39.097656 8.308594 39.113281 8.449219 39.15625 C 8.589844 39.199219 8.789062 39.265625 9.011719 39.371094 C 9.125 39.421875 9.246094 39.484375 9.367188 39.554688 C 9.488281 39.625 9.613281 39.707031 9.734375 39.796875 C 9.855469 39.886719 9.976562 39.988281 10.089844 40.097656 C 10.203125 40.203125 10.316406 40.324219 10.410156 40.441406 C 10.457031 40.503906 10.5 40.554688 10.550781 40.625 L 10.621094 40.730469 L 10.65625 40.78125 L 10.675781 40.808594 L 10.683594 40.820312 L 10.691406 40.828125 L 10.683594 40.820312 L 10.683594 40.824219 L 10.691406 40.835938 C 10.597656 40.789062 10.507812 40.738281 10.410156 40.699219 L 10.324219 40.664062 C 10.214844 40.621094 10.113281 40.585938 10.019531 40.554688 C 9.933594 40.507812 9.835938 40.464844 9.726562 40.421875 L 9.640625 40.386719 C 9 40.125 8.304688 40.035156 7.636719 40.125 C 6.523438 40.285156 5.042969 40.128906 4.308594 38.488281 C 3.890625 37.554688 3.855469 36.453125 4.214844 35.464844 C 4.636719 34.285156 5.667969 32.695312 8.144531 31.789062 C 8.253906 31.761719 8.363281 31.722656 8.472656 31.675781 L 8.53125 31.667969 C 8.609375 31.652344 8.707031 31.632812 8.808594 31.601562 C 8.914062 31.574219 9.023438 31.527344 9.140625 31.480469 C 9.257812 31.425781 9.382812 31.367188 9.503906 31.292969 C 9.628906 31.226562 9.746094 31.132812 9.871094 31.046875 C 9.984375 30.949219 10.109375 30.855469 10.21875 30.742188 C 10.328125 30.632812 10.441406 30.523438 10.535156 30.398438 L 10.679688 30.222656 C 10.730469 30.164062 10.769531 30.097656 10.8125 30.039062 C 10.898438 29.914062 10.984375 29.792969 11.050781 29.671875 C 11.121094 29.546875 11.195312 29.433594 11.25 29.320312 C 11.304688 29.203125 11.359375 29.097656 11.40625 28.996094 C 11.457031 28.898438 11.492188 28.804688 11.527344 28.71875 C 11.558594 28.636719 11.585938 28.566406 11.609375 28.503906 C 11.660156 28.386719 11.683594 28.320312 11.683594 28.320312 C 11.683594 28.320312 11.640625 28.378906 11.566406 28.480469 C 11.527344 28.53125 11.484375 28.59375 11.429688 28.664062 C 11.378906 28.734375 11.320312 28.8125 11.246094 28.894531 C 11.175781 28.976562 11.101562 29.0625 11.019531 29.15625 C 10.941406 29.25 10.847656 29.332031 10.753906 29.425781 C 10.664062 29.523438 10.558594 29.609375 10.457031 29.695312 C 10.402344 29.738281 10.355469 29.785156 10.300781 29.824219 L 10.132812 29.941406 C 10.09375 29.972656 10.050781 30 10.007812 30.027344 C 11.445312 27.714844 12.714844 25.277344 13.765625 22.765625 C 14.9375 19.976562 15.863281 17.0625 16.523438 14.109375 C 16.53125 14.144531 16.542969 14.175781 16.546875 14.214844 L 16.585938 14.414062 C 16.597656 14.480469 16.597656 14.546875 16.605469 14.617188 C 16.621094 14.75 16.632812 14.886719 16.632812 15.015625 C 16.628906 15.148438 16.640625 15.277344 16.632812 15.398438 C 16.625 15.519531 16.617188 15.636719 16.609375 15.742188 C 16.605469 15.851562 16.589844 15.949219 16.578125 16.035156 C 16.566406 16.121094 16.558594 16.199219 16.546875 16.261719 C 16.53125 16.386719 16.523438 16.460938 16.523438 16.460938 C 16.523438 16.460938 16.550781 16.394531 16.597656 16.273438 C 16.625 16.214844 16.652344 16.144531 16.6875 16.0625 C 16.722656 15.980469 16.761719 15.886719 16.796875 15.78125 C 16.832031 15.675781 16.867188 15.5625 16.910156 15.441406 C 16.949219 15.320312 16.976562 15.1875 17.011719 15.050781 C 17.050781 14.914062 17.074219 14.769531 17.097656 14.621094 C 17.109375 14.546875 17.128906 14.472656 17.132812 14.398438 L 17.152344 14.167969 C 17.171875 14.011719 17.167969 13.855469 17.167969 13.699219 C 17.167969 13.542969 17.144531 13.390625 17.132812 13.238281 C 17.101562 13.089844 17.082031 12.941406 17.039062 12.804688 C 17.007812 12.667969 16.960938 12.539062 16.914062 12.421875 C 16.863281 12.300781 16.816406 12.191406 16.761719 12.101562 C 16.742188 12.066406 16.726562 12.046875 16.707031 12.015625 C 16.648438 11.808594 16.566406 11.605469 16.453125 11.414062 C 15.316406 9.035156 15.695312 7.179688 16.210938 6.039062 C 16.648438 5.082031 17.445312 4.316406 18.394531 3.941406 C 20.0625 3.285156 21.234375 4.210938 21.917969 5.101562 C 22.023438 5.238281 22.136719 5.363281 22.261719 5.488281 C 22.332031 5.613281 22.429688 5.78125 22.5625 5.96875 C 22.839844 6.375 23.277344 6.863281 23.789062 7.226562 C 23.847656 7.269531 23.914062 7.316406 23.980469 7.359375 C 24.046875 7.40625 24.113281 7.445312 24.179688 7.484375 C 24.308594 7.5625 24.441406 7.632812 24.570312 7.695312 C 24.832031 7.820312 25.082031 7.910156 25.296875 7.972656 C 25.511719 8.039062 25.695312 8.078125 25.824219 8.097656 C 25.953125 8.121094 26.027344 8.132812 26.027344 8.132812 C 26.027344 8.132812 25.957031 8.105469 25.839844 8.050781 C 25.722656 7.992188 25.5625 7.910156 25.375 7.796875 C 25.191406 7.679688 24.984375 7.535156 24.78125 7.359375 C 24.679688 7.269531 24.578125 7.179688 24.480469 7.078125 C 24.433594 7.027344 24.382812 6.976562 24.339844 6.925781 C 24.296875 6.875 24.25 6.824219 24.203125 6.765625 C 24.136719 6.683594 24.078125 6.597656 24.019531 6.511719 C 24.082031 6.542969 24.140625 6.570312 24.214844 6.601562 L 24.300781 6.636719 C 24.945312 6.898438 25.640625 6.988281 26.304688 6.894531 C 27.417969 6.738281 28.902344 6.894531 29.632812 8.53125 " fill-opacity="1" fill-rule="nonzero"/></g><g clip-path="url(#6e91aa40b0)"><path fill="#ffffff" d="M 44.988281 27.3125 C 44.539062 28.582031 43.570312 29.664062 42.335938 30.28125 C 42.269531 30.3125 42.207031 30.34375 42.140625 30.375 C 40.757812 31.011719 38.597656 31.457031 35.851562 30.25 L 35.792969 30.222656 C 35.625 30.125 35.429688 30.070312 35.234375 30.0625 C 34.984375 30.050781 34.78125 30.117188 34.652344 30.171875 L 34.597656 30.199219 L 34.535156 30.214844 C 31.515625 30.917969 28.558594 31.933594 25.738281 33.234375 L 25.730469 33.238281 C 23.683594 34.183594 21.695312 35.285156 19.800781 36.523438 C 19.699219 36.148438 19.566406 35.757812 19.394531 35.351562 C 21.261719 34.148438 23.214844 33.070312 25.226562 32.140625 L 25.234375 32.136719 C 27.933594 30.890625 30.757812 29.90625 33.644531 29.1875 L 33.625 29.183594 L 33.425781 29.152344 C 33.359375 29.144531 33.292969 29.144531 33.222656 29.140625 C 33.089844 29.132812 32.953125 29.121094 32.824219 29.128906 C 32.691406 29.132812 32.5625 29.128906 32.441406 29.144531 C 32.320312 29.15625 32.203125 29.164062 32.097656 29.175781 C 31.992188 29.183594 31.894531 29.203125 31.808594 29.21875 C 31.71875 29.230469 31.644531 29.246094 31.582031 29.257812 C 31.472656 29.273438 31.402344 29.285156 31.386719 29.289062 C 31.402344 29.28125 31.464844 29.253906 31.566406 29.207031 C 31.625 29.179688 31.695312 29.148438 31.777344 29.109375 C 31.859375 29.074219 31.949219 29.027344 32.054688 28.992188 C 32.15625 28.953125 32.269531 28.910156 32.390625 28.867188 C 32.507812 28.820312 32.640625 28.789062 32.773438 28.746094 C 32.910156 28.707031 33.054688 28.675781 33.199219 28.648438 C 33.273438 28.632812 33.347656 28.613281 33.421875 28.605469 L 33.652344 28.574219 C 33.804688 28.550781 33.960938 28.550781 34.117188 28.546875 C 34.273438 28.539062 34.429688 28.558594 34.578125 28.566406 C 34.730469 28.589844 34.875 28.601562 35.015625 28.640625 C 35.15625 28.667969 35.285156 28.710938 35.40625 28.753906 C 35.523438 28.800781 35.636719 28.84375 35.730469 28.894531 L 35.75 28.90625 C 35.980469 28.957031 36.207031 29.039062 36.414062 29.152344 C 38.832031 30.203125 40.671875 29.757812 41.792969 29.199219 C 42.734375 28.726562 43.46875 27.90625 43.8125 26.941406 C 44.410156 25.253906 43.441406 24.117188 42.527344 23.460938 C 41.980469 23.070312 41.539062 22.527344 41.253906 21.890625 L 41.214844 21.808594 C 41.183594 21.734375 41.160156 21.675781 41.136719 21.609375 C 41.121094 21.710938 41.105469 21.8125 41.097656 21.917969 C 41.089844 21.996094 41.085938 22.0625 41.085938 22.128906 C 41.078125 22.195312 41.082031 22.265625 41.082031 22.335938 C 41.082031 22.476562 41.089844 22.613281 41.105469 22.746094 C 41.132812 23.015625 41.179688 23.261719 41.234375 23.472656 C 41.289062 23.683594 41.351562 23.855469 41.394531 23.976562 C 41.4375 24.082031 41.464844 24.144531 41.472656 24.160156 C 41.460938 24.148438 41.417969 24.09375 41.347656 24.003906 C 41.273438 23.898438 41.167969 23.746094 41.054688 23.546875 C 40.941406 23.351562 40.824219 23.113281 40.722656 22.84375 C 40.671875 22.710938 40.621094 22.570312 40.582031 22.421875 C 40.5625 22.347656 40.539062 22.273438 40.523438 22.195312 C 40.503906 22.117188 40.488281 22.039062 40.476562 21.96875 C 40.355469 21.351562 40.375 20.695312 40.453125 20.210938 C 40.488281 19.980469 40.53125 19.792969 40.570312 19.652344 C 40.5625 19.480469 40.570312 19.308594 40.585938 19.136719 C 40.703125 18.019531 40.492188 16.542969 38.832031 15.867188 C 37.886719 15.484375 36.78125 15.492188 35.808594 15.886719 C 34.644531 16.355469 33.09375 17.4375 32.273438 19.945312 C 32.226562 20.160156 32.148438 20.363281 32.046875 20.558594 C 32.039062 20.59375 32.035156 20.617188 32.023438 20.652344 C 32 20.757812 31.960938 20.871094 31.914062 20.992188 C 31.867188 21.109375 31.8125 21.234375 31.742188 21.359375 C 31.679688 21.488281 31.589844 21.605469 31.507812 21.734375 C 31.414062 21.851562 31.324219 21.980469 31.214844 22.09375 C 31.109375 22.207031 31.007812 22.324219 30.886719 22.421875 L 30.714844 22.574219 C 30.65625 22.625 30.59375 22.667969 30.53125 22.714844 C 30.414062 22.804688 30.296875 22.894531 30.175781 22.964844 C 30.054688 23.039062 29.945312 23.117188 29.832031 23.175781 C 29.71875 23.234375 29.613281 23.292969 29.515625 23.34375 C 29.417969 23.398438 29.324219 23.4375 29.242188 23.472656 C 29.160156 23.511719 29.089844 23.542969 29.03125 23.566406 C 28.914062 23.617188 28.847656 23.648438 28.847656 23.648438 C 28.847656 23.648438 28.90625 23.601562 29.003906 23.523438 C 29.054688 23.484375 29.113281 23.433594 29.183594 23.378906 C 29.25 23.324219 29.328125 23.265625 29.40625 23.1875 C 29.484375 23.117188 29.570312 23.035156 29.660156 22.953125 C 29.75 22.871094 29.832031 22.773438 29.921875 22.675781 C 30.015625 22.585938 30.09375 22.476562 30.179688 22.367188 C 30.222656 22.316406 30.265625 22.265625 30.304688 22.207031 L 30.414062 22.039062 C 30.4375 22.007812 30.453125 21.976562 30.472656 21.945312 C 27.953125 23.632812 25.277344 25.101562 22.503906 26.316406 C 21.980469 26.546875 21.457031 26.765625 20.925781 26.976562 C 21.109375 26.464844 21.296875 25.957031 21.5 25.453125 L 21.5 25.445312 L 21.507812 25.433594 C 21.679688 25.359375 21.851562 25.285156 22.023438 25.210938 C 24.890625 23.953125 27.660156 22.417969 30.242188 20.640625 L 30.289062 20.609375 L 30.34375 20.585938 C 30.714844 20.417969 30.984375 20.089844 31.0625 19.703125 L 31.078125 19.636719 C 32.042969 16.644531 33.9375 15.335938 35.359375 14.761719 C 36.640625 14.246094 38.089844 14.238281 39.335938 14.742188 C 41.136719 15.476562 42.046875 17.109375 41.824219 19.230469 C 41.773438 19.695312 41.855469 20.175781 42.054688 20.621094 L 42.09375 20.707031 C 42.136719 20.796875 42.171875 20.871094 42.210938 20.941406 L 42.242188 20.992188 L 42.261719 21.050781 C 42.285156 21.121094 42.316406 21.203125 42.359375 21.292969 L 42.394531 21.378906 C 42.597656 21.824219 42.902344 22.203125 43.28125 22.46875 C 45.011719 23.714844 45.636719 25.476562 44.988281 27.3125 " fill-opacity="1" fill-rule="nonzero"/></g></svg>