<svg xmlns="http://www.w3.org/2000/svg" xmlns:xlink="http://www.w3.org/1999/xlink" width="64" zoomAndPan="magnify" viewBox="0 0 48 48" height="64" preserveAspectRatio="xMidYMid meet" version="1.0"><defs><clipPath id="8d8a0ffbe2"><path d="M 10.527344 15 L 12 15 L 12 16 L 10.527344 16 Z M 10.527344 15 " clip-rule="nonzero"/></clipPath><clipPath id="52ed3c02f6"><path d="M 36 15 L 37.710938 15 L 37.710938 16 L 36 16 Z M 36 15 " clip-rule="nonzero"/></clipPath><clipPath id="849673dddb"><path d="M 10.527344 43 L 37 43 L 37 44 L 10.527344 44 Z M 10.527344 43 " clip-rule="nonzero"/></clipPath><clipPath id="24b6ced68c"><path d="M 10.527344 15 L 12 15 L 12 44 L 10.527344 44 Z M 10.527344 15 " clip-rule="nonzero"/></clipPath><clipPath id="24cb9f85aa"><path d="M 36 15 L 37.710938 15 L 37.710938 44 L 36 44 Z M 36 15 " clip-rule="nonzero"/></clipPath><clipPath id="4d8e3ebf34"><path d="M 10.527344 43 L 13 43 L 13 45 L 10.527344 45 Z M 10.527344 43 " clip-rule="nonzero"/></clipPath><clipPath id="933476a4d7"><path d="M 11 44 L 36 44 L 36 45.171875 L 11 45.171875 Z M 11 44 " clip-rule="nonzero"/></clipPath><clipPath id="82498b6bb4"><path d="M 35 43 L 37.710938 43 L 37.710938 45.171875 L 35 45.171875 Z M 35 43 " clip-rule="nonzero"/></clipPath><clipPath id="172ff5ced8"><path d="M 10.527344 13 L 13 13 L 13 16 L 10.527344 16 Z M 10.527344 13 " clip-rule="nonzero"/></clipPath><clipPath id="57c12dd298"><path d="M 35 13 L 37.710938 13 L 37.710938 16 L 35 16 Z M 35 13 " clip-rule="nonzero"/></clipPath><clipPath id="f5ec562d20"><path d="M 16 1.824219 L 32 1.824219 L 32 3 L 16 3 Z M 16 1.824219 " clip-rule="nonzero"/></clipPath><clipPath id="c0417749ec"><path d="M 31 1.824219 L 33 1.824219 L 33 4 L 31 4 Z M 31 1.824219 " clip-rule="nonzero"/></clipPath></defs><path fill="#ffffff" d="M 22.199219 7.652344 C 21.59375 7.621094 20.976562 7.59375 20.367188 7.625 C 20.320312 7.628906 20.316406 7.703125 20.367188 7.703125 C 20.976562 7.738281 21.59375 7.710938 22.199219 7.679688 C 22.21875 7.679688 22.21875 7.652344 22.199219 7.652344 " fill-opacity="1" fill-rule="nonzero"/><path fill="#ffffff" d="M 22.933594 7.332031 C 22.0625 7.335938 21.1875 7.320312 20.316406 7.367188 C 20.269531 7.371094 20.265625 7.445312 20.316406 7.445312 C 21.1875 7.464844 22.0625 7.417969 22.933594 7.390625 C 22.972656 7.390625 22.972656 7.332031 22.933594 7.332031 " fill-opacity="1" fill-rule="nonzero"/><path fill="#ffffff" d="M 24.976562 7.460938 C 25.980469 7.449219 26.984375 7.480469 27.988281 7.460938 C 28.03125 7.460938 28.03125 7.402344 27.988281 7.398438 C 27 7.3125 25.96875 7.390625 24.976562 7.441406 C 24.964844 7.441406 24.964844 7.460938 24.976562 7.460938 " fill-opacity="1" fill-rule="nonzero"/><path fill="#ffffff" d="M 26.039062 7.726562 C 26.65625 7.753906 27.28125 7.742188 27.902344 7.75 C 27.917969 7.75 27.914062 7.730469 27.902344 7.730469 C 27.292969 7.660156 26.644531 7.636719 26.035156 7.71875 C 26.03125 7.722656 26.035156 7.726562 26.039062 7.726562 " fill-opacity="1" fill-rule="nonzero"/><path fill="#ffffff" d="M 22.222656 11.53125 C 21.582031 11.476562 20.914062 11.421875 20.273438 11.484375 C 20.214844 11.488281 20.214844 11.570312 20.273438 11.574219 C 20.921875 11.597656 21.574219 11.554688 22.222656 11.578125 C 22.253906 11.578125 22.253906 11.535156 22.222656 11.53125 " fill-opacity="1" fill-rule="nonzero"/><path fill="#ffffff" d="M 26.46875 11.625 C 26.933594 11.65625 27.4375 11.695312 27.902344 11.644531 C 27.953125 11.636719 27.953125 11.566406 27.902344 11.5625 C 27.4375 11.511719 26.933594 11.550781 26.46875 11.582031 C 26.441406 11.582031 26.441406 11.621094 26.46875 11.625 " fill-opacity="1" fill-rule="nonzero"/><path fill="#ffffff" d="M 22.050781 13.324219 C 21.464844 13.324219 20.886719 13.265625 20.300781 13.246094 C 20.257812 13.246094 20.246094 13.320312 20.289062 13.324219 C 20.867188 13.414062 21.46875 13.398438 22.050781 13.378906 C 22.085938 13.378906 22.085938 13.324219 22.050781 13.324219 " fill-opacity="1" fill-rule="nonzero"/><path fill="#ffffff" d="M 26.4375 13.433594 C 26.871094 13.417969 27.300781 13.40625 27.730469 13.363281 C 27.773438 13.359375 27.773438 13.296875 27.730469 13.296875 C 27.296875 13.304688 26.867188 13.347656 26.4375 13.382812 C 26.40625 13.386719 26.40625 13.4375 26.4375 13.433594 " fill-opacity="1" fill-rule="nonzero"/><path fill="#ffffff" d="M 26.84375 8.855469 C 27.386719 8.863281 27.9375 8.886719 28.476562 8.847656 C 28.496094 8.84375 28.496094 8.816406 28.476562 8.816406 C 27.9375 8.78125 27.386719 8.804688 26.84375 8.816406 C 26.816406 8.816406 26.816406 8.855469 26.84375 8.855469 " fill-opacity="1" fill-rule="nonzero"/><path fill="#ffffff" d="M 26.601562 10.410156 C 27.183594 10.441406 27.789062 10.4375 28.367188 10.382812 C 28.398438 10.382812 28.398438 10.339844 28.367188 10.339844 C 27.789062 10.316406 27.183594 10.34375 26.601562 10.398438 C 26.597656 10.402344 26.597656 10.410156 26.601562 10.410156 " fill-opacity="1" fill-rule="nonzero"/><path fill="#ffffff" d="M 21.917969 8.933594 C 21.140625 8.910156 20.355469 8.984375 19.582031 9.023438 C 19.550781 9.027344 19.550781 9.078125 19.582031 9.078125 C 20.359375 9.050781 21.144531 9.054688 21.917969 8.960938 C 21.933594 8.960938 21.933594 8.933594 21.917969 8.933594 " fill-opacity="1" fill-rule="nonzero"/><path fill="#ffffff" d="M 21.960938 10.433594 C 21.222656 10.425781 20.445312 10.375 19.714844 10.457031 C 19.679688 10.460938 19.679688 10.507812 19.714844 10.511719 C 20.449219 10.574219 21.222656 10.503906 21.960938 10.480469 C 21.988281 10.480469 21.988281 10.433594 21.960938 10.433594 " fill-opacity="1" fill-rule="nonzero"/><path fill="#ffffff" d="M 21.371094 10.703125 C 20.878906 10.699219 20.382812 10.683594 19.890625 10.699219 C 19.863281 10.699219 19.863281 10.734375 19.890625 10.734375 C 20.382812 10.75 20.878906 10.734375 21.371094 10.730469 C 21.390625 10.730469 21.390625 10.703125 21.371094 10.703125 " fill-opacity="1" fill-rule="nonzero"/><path fill="#ffffff" d="M 20.78125 8.714844 C 20.457031 8.714844 20.128906 8.683594 19.800781 8.683594 C 19.773438 8.683594 19.761719 8.734375 19.792969 8.738281 C 20.117188 8.785156 20.457031 8.769531 20.78125 8.746094 C 20.800781 8.746094 20.804688 8.714844 20.78125 8.714844 " fill-opacity="1" fill-rule="nonzero"/><path fill="#ffffff" d="M 27.585938 8.597656 C 27.824219 8.59375 28.066406 8.617188 28.304688 8.617188 C 28.328125 8.617188 28.335938 8.578125 28.308594 8.574219 C 28.074219 8.535156 27.824219 8.550781 27.585938 8.566406 C 27.5625 8.566406 27.5625 8.597656 27.585938 8.597656 " fill-opacity="1" fill-rule="nonzero"/><path fill="#ffffff" d="M 27.347656 10.707031 C 27.578125 10.671875 27.808594 10.667969 28.042969 10.679688 C 28.074219 10.679688 28.074219 10.632812 28.042969 10.628906 C 27.804688 10.605469 27.574219 10.628906 27.34375 10.6875 C 27.328125 10.691406 27.335938 10.710938 27.347656 10.707031 " fill-opacity="1" fill-rule="nonzero"/><path fill="#ffffff" d="M 27.535156 6.46875 C 28.511719 6.492188 29.496094 6.503906 30.472656 6.4375 C 30.5 6.4375 30.5 6.398438 30.472656 6.398438 C 29.496094 6.390625 28.515625 6.417969 27.535156 6.421875 C 27.503906 6.421875 27.503906 6.46875 27.535156 6.46875 " fill-opacity="1" fill-rule="nonzero"/><path fill="#ffffff" d="M 17.542969 6.539062 C 18.789062 6.554688 20.042969 6.546875 21.285156 6.480469 C 21.324219 6.480469 21.324219 6.417969 21.285156 6.417969 C 20.039062 6.425781 18.789062 6.457031 17.542969 6.511719 C 17.527344 6.511719 17.527344 6.539062 17.542969 6.539062 " fill-opacity="1" fill-rule="nonzero"/><path fill="#ffffff" d="M 12.632812 14.714844 C 12.492188 14.433594 12.289062 14.175781 12.015625 14.007812 C 11.984375 13.988281 11.945312 14.039062 11.976562 14.0625 C 12.214844 14.261719 12.429688 14.472656 12.59375 14.738281 C 12.609375 14.765625 12.648438 14.742188 12.632812 14.714844 " fill-opacity="1" fill-rule="nonzero"/><g clip-path="url(#8d8a0ffbe2)"><path fill="#ffffff" d="M 11.597656 15.550781 C 11.367188 15.484375 11.101562 15.492188 10.863281 15.511719 C 10.820312 15.515625 10.820312 15.582031 10.863281 15.578125 C 11.105469 15.566406 11.355469 15.589844 11.597656 15.570312 C 11.605469 15.570312 11.609375 15.554688 11.597656 15.550781 " fill-opacity="1" fill-rule="nonzero"/></g><path fill="#ffffff" d="M 35.105469 14.585938 C 35.207031 14.527344 35.285156 14.402344 35.351562 14.300781 C 35.429688 14.183594 35.492188 14.0625 35.542969 13.929688 C 35.5625 13.882812 35.484375 13.847656 35.460938 13.894531 C 35.398438 14.015625 35.339844 14.136719 35.269531 14.253906 C 35.207031 14.355469 35.113281 14.449219 35.074219 14.5625 C 35.066406 14.578125 35.089844 14.59375 35.105469 14.585938 " fill-opacity="1" fill-rule="nonzero"/><g clip-path="url(#52ed3c02f6)"><path fill="#ffffff" d="M 36.230469 15.484375 C 36.488281 15.492188 36.738281 15.519531 36.992188 15.574219 C 37.035156 15.585938 37.054688 15.519531 37.011719 15.507812 C 36.753906 15.449219 36.492188 15.417969 36.230469 15.4375 C 36.199219 15.4375 36.199219 15.484375 36.230469 15.484375 " fill-opacity="1" fill-rule="nonzero"/></g><path fill="#ffffff" d="M 12.585938 44.222656 C 12.429688 44.425781 12.253906 44.613281 12.050781 44.777344 C 12.007812 44.808594 12.070312 44.871094 12.113281 44.835938 C 12.320312 44.671875 12.496094 44.476562 12.632812 44.25 C 12.648438 44.21875 12.605469 44.195312 12.585938 44.222656 " fill-opacity="1" fill-rule="nonzero"/><path fill="#ffffff" d="M 34.832031 44.042969 C 34.921875 44.171875 35.050781 44.28125 35.160156 44.390625 C 35.289062 44.515625 35.414062 44.640625 35.546875 44.757812 C 35.589844 44.792969 35.644531 44.738281 35.605469 44.695312 C 35.484375 44.566406 35.355469 44.449219 35.226562 44.328125 C 35.109375 44.222656 34.996094 44.097656 34.859375 44.015625 C 34.84375 44.003906 34.820312 44.027344 34.832031 44.042969 " fill-opacity="1" fill-rule="nonzero"/><path fill="#ffffff" d="M 14.761719 42.699219 C 18.355469 42.070312 21.953125 41.886719 25.597656 42.09375 C 25.65625 42.097656 25.65625 42.003906 25.597656 42 C 21.988281 41.695312 18.292969 41.929688 14.746094 42.640625 C 14.707031 42.648438 14.726562 42.707031 14.761719 42.699219 " fill-opacity="1" fill-rule="nonzero"/><path fill="#ffffff" d="M 15.367188 26.390625 C 16.625 25.121094 17.832031 23.804688 19.058594 22.503906 C 19.085938 22.472656 19.039062 22.429688 19.011719 22.457031 C 17.789062 23.757812 16.546875 25.046875 15.355469 26.375 C 15.34375 26.386719 15.359375 26.398438 15.367188 26.390625 " fill-opacity="1" fill-rule="nonzero"/><path fill="#ffffff" d="M 14.597656 30.996094 C 16.160156 29.445312 17.691406 27.769531 19.003906 25.996094 C 19.019531 25.972656 18.980469 25.941406 18.960938 25.964844 C 18.238281 26.808594 17.554688 27.679688 16.824219 28.515625 C 16.089844 29.351562 15.332031 30.160156 14.574219 30.972656 C 14.5625 30.988281 14.582031 31.007812 14.597656 30.996094 " fill-opacity="1" fill-rule="nonzero"/><path fill="#ffffff" d="M 20.78125 37.777344 C 22.449219 35.984375 24.113281 34.1875 25.769531 32.386719 C 26.007812 32.125 26.238281 31.863281 26.476562 31.601562 C 26.503906 31.574219 26.460938 31.53125 26.433594 31.558594 C 24.777344 33.363281 23.109375 35.160156 21.460938 36.972656 C 21.226562 37.230469 20.988281 37.492188 20.753906 37.75 C 20.734375 37.769531 20.761719 37.796875 20.78125 37.777344 " fill-opacity="1" fill-rule="nonzero"/><path fill="#ffffff" d="M 28.851562 29.105469 C 30.222656 27.503906 31.554688 25.863281 32.902344 24.242188 C 33.09375 24.007812 33.28125 23.773438 33.476562 23.542969 C 33.507812 23.503906 33.453125 23.449219 33.417969 23.488281 C 32.074219 25.113281 30.726562 26.738281 29.386719 28.371094 C 29.195312 28.601562 29.003906 28.835938 28.816406 29.070312 C 28.796875 29.097656 28.828125 29.128906 28.851562 29.105469 " fill-opacity="1" fill-rule="nonzero"/><path fill="#ffffff" d="M 20.246094 11.824219 C 21.441406 12.078125 22.730469 12.046875 23.945312 12.039062 C 25.234375 12.035156 26.527344 11.992188 27.816406 11.921875 C 27.929688 11.917969 27.929688 11.742188 27.816406 11.746094 C 26.554688 11.769531 25.292969 11.828125 24.03125 11.84375 C 22.773438 11.859375 21.503906 11.757812 20.25 11.808594 C 20.242188 11.8125 20.238281 11.824219 20.246094 11.824219 " fill-opacity="1" fill-rule="nonzero"/><path fill="#ffffff" d="M 20.238281 13.078125 C 21.464844 13.246094 22.714844 13.261719 23.949219 13.25 C 25.230469 13.242188 26.539062 13.242188 27.816406 13.132812 C 27.9375 13.121094 27.941406 12.9375 27.816406 12.9375 C 26.554688 12.953125 25.292969 13.070312 24.03125 13.089844 C 22.765625 13.113281 21.507812 13.070312 20.246094 13.019531 C 20.214844 13.019531 20.207031 13.074219 20.238281 13.078125 " fill-opacity="1" fill-rule="nonzero"/><path fill="#ffffff" d="M 24.1875 12.15625 C 23.894531 12.148438 23.730469 12.480469 23.871094 12.726562 C 24.027344 12.996094 24.453125 13.050781 24.648438 12.789062 C 24.835938 12.535156 24.675781 12.175781 24.382812 12.101562 C 24.074219 12.023438 23.738281 12.285156 23.789062 12.613281 C 23.804688 12.71875 23.957031 12.699219 23.980469 12.613281 C 24.027344 12.460938 24.089844 12.289062 24.285156 12.296875 C 24.453125 12.304688 24.566406 12.480469 24.472656 12.632812 C 24.386719 12.769531 24.191406 12.75 24.085938 12.648438 C 23.945312 12.515625 24.011719 12.292969 24.203125 12.257812 C 24.261719 12.246094 24.246094 12.15625 24.1875 12.15625 " fill-opacity="1" fill-rule="nonzero"/><g clip-path="url(#849673dddb)"><path fill="#ffffff" d="M 10.652344 43.550781 C 13.59375 43.613281 16.535156 43.609375 19.480469 43.617188 C 24.160156 43.628906 28.84375 43.640625 33.523438 43.644531 C 34.566406 43.644531 35.730469 43.636719 36.714844 43.636719 C 36.847656 43.636719 36.847656 43.429688 36.714844 43.429688 C 33.851562 43.429688 30.808594 43.425781 27.890625 43.433594 C 23.207031 43.445312 18.527344 43.453125 13.84375 43.472656 C 12.78125 43.476562 11.71875 43.496094 10.652344 43.515625 C 10.632812 43.519531 10.632812 43.550781 10.652344 43.550781 " fill-opacity="1" fill-rule="nonzero"/></g><path fill="#ffffff" d="M 12.257812 15.328125 C 14.890625 15.386719 17.527344 15.382812 20.160156 15.390625 C 24.355469 15.402344 28.554688 15.417969 32.75 15.421875 C 33.683594 15.421875 34.75 15.414062 35.628906 15.414062 C 35.761719 15.414062 35.761719 15.207031 35.628906 15.207031 C 33.074219 15.207031 30.335938 15.199219 27.722656 15.207031 C 23.527344 15.21875 19.332031 15.230469 15.136719 15.246094 C 14.175781 15.25 13.21875 15.269531 12.257812 15.292969 C 12.234375 15.292969 12.234375 15.328125 12.257812 15.328125 " fill-opacity="1" fill-rule="nonzero"/><path fill="#ffffff" d="M 17.617188 5.648438 C 18.042969 5.699219 18.480469 5.6875 18.90625 5.695312 C 19.9375 5.714844 20.96875 5.714844 22 5.714844 C 24.332031 5.714844 26.664062 5.710938 28.996094 5.707031 C 29.511719 5.703125 30.167969 5.691406 30.617188 5.691406 C 30.761719 5.6875 30.761719 5.464844 30.617188 5.464844 C 26.914062 5.472656 23.011719 5.433594 19.238281 5.507812 C 18.703125 5.519531 18.152344 5.503906 17.617188 5.570312 C 17.570312 5.578125 17.570312 5.640625 17.617188 5.648438 " fill-opacity="1" fill-rule="nonzero"/><path fill="#ffffff" d="M 17.714844 3.25 C 18.144531 3.300781 18.582031 3.289062 19.015625 3.296875 C 20.039062 3.320312 21.0625 3.316406 22.085938 3.316406 C 24.40625 3.316406 26.722656 3.316406 29.042969 3.308594 C 29.542969 3.308594 30.183594 3.292969 30.617188 3.292969 C 30.761719 3.292969 30.761719 3.066406 30.617188 3.070312 C 26.929688 3.078125 23.046875 3.03125 19.292969 3.113281 C 18.769531 3.125 18.234375 3.109375 17.714844 3.175781 C 17.667969 3.179688 17.667969 3.246094 17.714844 3.25 " fill-opacity="1" fill-rule="nonzero"/><path fill="#ffffff" d="M 16.871094 5.875 C 16.886719 6.042969 16.9375 6.207031 16.960938 6.371094 C 16.988281 6.550781 16.992188 6.734375 17.03125 6.914062 C 17.050781 7.015625 17.21875 6.992188 17.210938 6.890625 C 17.175781 6.554688 17.105469 6.152344 16.945312 5.855469 C 16.925781 5.824219 16.867188 5.835938 16.871094 5.875 " fill-opacity="1" fill-rule="nonzero"/><path fill="#ffffff" d="M 17.074219 2.0625 C 16.96875 2.332031 16.78125 2.640625 16.789062 2.933594 C 16.792969 3.019531 16.902344 3.027344 16.929688 2.953125 C 16.984375 2.816406 16.992188 2.660156 17.023438 2.515625 C 17.058594 2.371094 17.097656 2.226562 17.128906 2.078125 C 17.140625 2.042969 17.089844 2.03125 17.074219 2.0625 " fill-opacity="1" fill-rule="nonzero"/><path fill="#ffffff" d="M 16.882812 3.542969 C 16.851562 3.832031 16.839844 4.117188 16.828125 4.40625 C 16.820312 4.660156 16.78125 4.921875 16.84375 5.167969 C 16.859375 5.238281 16.964844 5.238281 16.984375 5.167969 C 17.046875 4.925781 17.003906 4.65625 16.996094 4.40625 C 16.988281 4.117188 16.976562 3.832031 16.941406 3.542969 C 16.9375 3.503906 16.886719 3.503906 16.882812 3.542969 " fill-opacity="1" fill-rule="nonzero"/><path fill="#ffffff" d="M 31.414062 3.53125 C 31.339844 3.773438 31.355469 4.042969 31.359375 4.296875 C 31.359375 4.589844 31.359375 4.886719 31.382812 5.175781 C 31.390625 5.300781 31.570312 5.304688 31.578125 5.175781 C 31.59375 4.886719 31.585938 4.589844 31.578125 4.296875 C 31.570312 4.042969 31.582031 3.773438 31.5 3.53125 C 31.484375 3.488281 31.425781 3.488281 31.414062 3.53125 " fill-opacity="1" fill-rule="nonzero"/><path fill="#ffffff" d="M 31.363281 2.164062 C 31.34375 2.332031 31.378906 2.503906 31.421875 2.667969 C 31.445312 2.761719 31.46875 2.863281 31.53125 2.9375 C 31.566406 2.980469 31.640625 2.945312 31.636719 2.894531 C 31.632812 2.808594 31.59375 2.726562 31.566406 2.644531 C 31.515625 2.488281 31.472656 2.328125 31.484375 2.164062 C 31.492188 2.082031 31.375 2.085938 31.363281 2.164062 " fill-opacity="1" fill-rule="nonzero"/><path fill="#ffffff" d="M 31.570312 5.832031 C 31.523438 6.003906 31.472656 6.171875 31.410156 6.339844 C 31.355469 6.492188 31.289062 6.65625 31.296875 6.824219 C 31.300781 6.910156 31.417969 6.925781 31.445312 6.84375 C 31.5 6.679688 31.515625 6.496094 31.558594 6.324219 C 31.601562 6.167969 31.632812 6.003906 31.632812 5.839844 C 31.632812 5.808594 31.582031 5.800781 31.570312 5.832031 " fill-opacity="1" fill-rule="nonzero"/><path fill="#ffffff" d="M 13.015625 23.046875 C 13.015625 22.800781 13.023438 22.554688 13.039062 22.308594 C 13.039062 22.261719 12.96875 22.261719 12.964844 22.308594 C 12.914062 22.90625 12.929688 23.542969 12.925781 24.148438 C 12.914062 25.609375 12.902344 27.066406 12.894531 28.527344 C 12.871094 31.832031 12.847656 35.136719 12.832031 38.441406 C 12.828125 39.203125 12.828125 39.964844 12.824219 40.726562 C 12.824219 40.839844 12.996094 40.839844 13 40.726562 C 13.007812 38.558594 13.023438 36.394531 13.03125 34.226562 C 13.039062 30.894531 13.050781 27.5625 13.058594 24.230469 C 13.058594 23.726562 13.058594 23.222656 13.054688 22.71875 C 13.050781 22.625 13.082031 22.460938 13.042969 22.371094 C 13.035156 22.355469 13.046875 22.316406 13.039062 22.3125 C 12.941406 22.222656 12.984375 22.53125 12.984375 22.535156 C 13 22.707031 13.007812 22.875 13.011719 23.046875 C 13.011719 23.046875 13.015625 23.046875 13.015625 23.046875 " fill-opacity="1" fill-rule="nonzero"/><path fill="#ffffff" d="M 35.070312 16.804688 C 34.914062 18.46875 34.976562 20.171875 34.949219 21.839844 C 34.90625 24.53125 34.84375 27.226562 34.84375 29.917969 C 34.84375 30.53125 34.855469 31.175781 34.847656 31.773438 C 34.847656 31.839844 34.953125 31.839844 34.953125 31.773438 C 34.976562 30.117188 35.039062 28.410156 35.0625 26.738281 C 35.105469 24.046875 35.15625 21.351562 35.167969 18.660156 C 35.171875 18.042969 35.195312 17.421875 35.15625 16.804688 C 35.152344 16.75 35.074219 16.75 35.070312 16.804688 " fill-opacity="1" fill-rule="nonzero"/><path fill="#ffffff" d="M 24.71875 16.109375 C 21.582031 16.046875 18.445312 16.054688 15.308594 16.074219 C 14.863281 16.078125 14.421875 16.089844 13.980469 16.089844 C 13.953125 16.089844 13.953125 16.125 13.980469 16.125 C 17.113281 16.128906 20.25 16.1875 23.386719 16.140625 C 23.832031 16.132812 24.273438 16.128906 24.71875 16.117188 C 24.722656 16.117188 24.722656 16.109375 24.71875 16.109375 " fill-opacity="1" fill-rule="nonzero"/><path fill="#ffffff" d="M 31.917969 5.660156 C 32.019531 5.664062 32.125 5.667969 32.226562 5.6875 C 32.316406 5.699219 32.402344 5.722656 32.492188 5.722656 C 32.558594 5.71875 32.582031 5.632812 32.527344 5.601562 C 32.347656 5.492188 32.097656 5.515625 31.90625 5.5625 C 31.851562 5.578125 31.863281 5.65625 31.917969 5.660156 " fill-opacity="1" fill-rule="nonzero"/><path fill="#ffffff" d="M 31.917969 3.167969 C 32.121094 3.167969 32.375 3.144531 32.558594 3.0625 C 32.640625 3.027344 32.59375 2.90625 32.519531 2.90625 C 32.320312 2.902344 32.082031 2.976562 31.902344 3.050781 C 31.839844 3.074219 31.84375 3.167969 31.917969 3.167969 " fill-opacity="1" fill-rule="nonzero"/><path fill="#ffffff" d="M 16.496094 3.261719 C 16.335938 3.210938 16.121094 3.15625 15.949219 3.1875 C 15.875 3.199219 15.890625 3.300781 15.949219 3.324219 C 16.109375 3.382812 16.332031 3.363281 16.496094 3.335938 C 16.539062 3.332031 16.527344 3.273438 16.496094 3.261719 " fill-opacity="1" fill-rule="nonzero"/><path fill="#ffffff" d="M 16.515625 5.597656 C 16.296875 5.578125 16.050781 5.578125 15.839844 5.636719 C 15.777344 5.65625 15.785156 5.757812 15.855469 5.753906 C 16.074219 5.738281 16.292969 5.695312 16.515625 5.671875 C 16.5625 5.667969 16.5625 5.601562 16.515625 5.597656 " fill-opacity="1" fill-rule="nonzero"/><path fill="#ffffff" d="M 27.769531 29.460938 C 27.792969 27.558594 27.808594 25.65625 27.8125 23.753906 C 27.816406 22.863281 27.84375 21.96875 27.800781 21.078125 C 27.792969 20.902344 27.796875 20.835938 27.609375 20.796875 C 27.175781 20.710938 26.65625 20.777344 26.21875 20.773438 C 24.488281 20.757812 22.757812 20.769531 21.027344 20.773438 C 20.867188 20.773438 20.867188 21.023438 21.027344 21.023438 C 22.542969 21.015625 24.054688 21.007812 25.566406 21.007812 C 26.140625 21.007812 26.714844 21.003906 27.285156 21.011719 C 27.394531 21.011719 27.550781 21.046875 27.65625 21.023438 C 27.5625 21.042969 27.589844 20.902344 27.574219 20.960938 C 27.566406 20.996094 27.585938 21.042969 27.582031 21.078125 C 27.550781 21.390625 27.597656 21.730469 27.601562 22.042969 C 27.609375 22.570312 27.613281 23.101562 27.613281 23.632812 C 27.625 24.847656 27.621094 26.066406 27.632812 27.28125 C 27.636719 28.007812 27.644531 28.734375 27.648438 29.460938 C 27.648438 29.539062 27.769531 29.539062 27.769531 29.460938 " fill-opacity="1" fill-rule="nonzero"/><path fill="#ffffff" d="M 20.113281 21.519531 C 20.089844 23.496094 20.074219 25.476562 20.070312 27.453125 C 20.066406 28.386719 20.042969 29.324219 20.082031 30.253906 C 20.089844 30.429688 20.082031 30.515625 20.261719 30.554688 C 20.683594 30.648438 21.207031 30.578125 21.632812 30.582031 C 23.46875 30.597656 25.308594 30.585938 27.144531 30.578125 C 27.304688 30.578125 27.304688 30.332031 27.144531 30.332031 C 25.554688 30.339844 23.964844 30.347656 22.378906 30.347656 C 21.78125 30.347656 21.183594 30.351562 20.589844 30.34375 C 20.492188 30.339844 20.324219 30.304688 20.230469 30.332031 C 20.34375 30.300781 20.289062 30.453125 20.308594 30.378906 C 20.316406 30.34375 20.300781 30.292969 20.300781 30.253906 C 20.363281 29.386719 20.273438 28.480469 20.269531 27.613281 C 20.257812 26.332031 20.261719 25.050781 20.25 23.769531 C 20.246094 23.019531 20.238281 22.269531 20.234375 21.519531 C 20.234375 21.441406 20.117188 21.441406 20.113281 21.519531 " fill-opacity="1" fill-rule="nonzero"/><g clip-path="url(#24b6ced68c)"><path fill="#ffffff" d="M 10.78125 15.351562 C 10.636719 17.691406 10.65625 20.046875 10.625 22.390625 C 10.597656 24.808594 10.578125 27.222656 10.570312 29.640625 C 10.554688 33.441406 10.546875 37.246094 10.558594 41.046875 C 10.5625 41.773438 10.574219 42.5 10.578125 43.226562 C 10.578125 43.507812 11.015625 43.511719 11.015625 43.226562 C 11.007812 41.125 11.015625 39.023438 11.007812 36.921875 C 11 32.375 11.007812 27.828125 11.015625 23.277344 C 11.015625 20.640625 11.09375 17.988281 11.007812 15.351562 C 11.003906 15.203125 10.789062 15.203125 10.78125 15.351562 " fill-opacity="1" fill-rule="nonzero"/></g><g clip-path="url(#24cb9f85aa)"><path fill="#ffffff" d="M 36.90625 15.542969 C 36.890625 17.847656 36.9375 20.148438 36.929688 22.449219 C 36.917969 24.859375 36.890625 27.265625 36.863281 29.675781 C 36.820312 33.492188 36.792969 37.304688 36.726562 41.121094 C 36.714844 41.851562 36.703125 42.582031 36.6875 43.316406 C 36.679688 43.65625 37.207031 43.65625 37.214844 43.316406 C 37.265625 41.214844 37.308594 39.117188 37.34375 37.015625 C 37.417969 32.472656 37.441406 27.929688 37.359375 23.386719 C 37.3125 20.777344 37.296875 18.152344 37.117188 15.542969 C 37.109375 15.410156 36.90625 15.40625 36.90625 15.542969 " fill-opacity="1" fill-rule="nonzero"/></g><g clip-path="url(#4d8e3ebf34)"><path fill="#ffffff" d="M 12.117188 44.800781 C 11.949219 44.582031 11.773438 44.363281 11.59375 44.152344 C 11.453125 43.984375 11.316406 43.816406 11.179688 43.648438 C 11.085938 43.53125 10.980469 43.3125 10.84375 43.246094 C 10.703125 43.179688 10.582031 43.289062 10.601562 43.433594 C 10.621094 43.574219 10.800781 43.714844 10.894531 43.808594 C 11.046875 43.972656 11.207031 44.128906 11.367188 44.289062 C 11.574219 44.496094 11.789062 44.691406 12.019531 44.878906 C 12.070312 44.921875 12.164062 44.863281 12.117188 44.800781 " fill-opacity="1" fill-rule="nonzero"/></g><g clip-path="url(#933476a4d7)"><path fill="#ffffff" d="M 12.035156 44.929688 C 12.554688 45.007812 13.089844 45.023438 13.613281 45.035156 C 14.992188 45.078125 16.371094 45.109375 17.746094 45.128906 C 21.640625 45.1875 25.535156 45.195312 29.429688 45.175781 C 31.4375 45.164062 33.449219 45.152344 35.460938 45.113281 C 35.835938 45.105469 35.835938 44.519531 35.460938 44.523438 C 31.699219 44.59375 27.9375 44.597656 24.175781 44.601562 C 20.8125 44.601562 17.449219 44.601562 14.085938 44.648438 C 13.414062 44.65625 12.726562 44.648438 12.0625 44.734375 C 11.964844 44.746094 11.914062 44.914062 12.035156 44.929688 " fill-opacity="1" fill-rule="nonzero"/></g><g clip-path="url(#82498b6bb4)"><path fill="#ffffff" d="M 36.988281 43.382812 C 36.671875 43.59375 36.367188 43.816406 36.058594 44.039062 C 35.785156 44.238281 35.449219 44.417969 35.257812 44.699219 C 35.113281 44.914062 35.386719 45.105469 35.578125 45.019531 C 35.875 44.882812 36.121094 44.5625 36.359375 44.335938 C 36.625 44.085938 36.882812 43.835938 37.132812 43.570312 C 37.222656 43.476562 37.105469 43.308594 36.988281 43.382812 " fill-opacity="1" fill-rule="nonzero"/></g><g clip-path="url(#172ff5ced8)"><path fill="#ffffff" d="M 12.019531 13.894531 C 11.816406 14.09375 11.632812 14.300781 11.445312 14.515625 C 11.316406 14.667969 11.183594 14.824219 11.054688 14.980469 C 10.953125 15.097656 10.808594 15.222656 10.792969 15.382812 C 10.78125 15.519531 10.9375 15.570312 11.039062 15.523438 C 11.167969 15.46875 11.25 15.265625 11.328125 15.152344 C 11.441406 14.984375 11.558594 14.816406 11.675781 14.648438 C 11.828125 14.425781 11.976562 14.203125 12.117188 13.96875 C 12.15625 13.90625 12.070312 13.84375 12.019531 13.894531 " fill-opacity="1" fill-rule="nonzero"/></g><path fill="#ffffff" d="M 12.0625 14.039062 C 12.589844 14.105469 13.136719 14.109375 13.667969 14.117188 C 15.042969 14.136719 16.417969 14.15625 17.792969 14.164062 C 21.671875 14.183594 25.550781 14.175781 29.429688 14.1875 C 31.4375 14.199219 33.449219 14.210938 35.460938 14.246094 C 35.835938 14.253906 35.835938 13.667969 35.460938 13.660156 C 31.679688 13.589844 27.898438 13.585938 24.121094 13.597656 C 20.753906 13.605469 17.386719 13.632812 14.023438 13.726562 C 13.363281 13.742188 12.6875 13.746094 12.035156 13.839844 C 11.914062 13.859375 11.960938 14.027344 12.0625 14.039062 " fill-opacity="1" fill-rule="nonzero"/><g clip-path="url(#57c12dd298)"><path fill="#ffffff" d="M 37.132812 15.398438 C 36.867188 15.117188 36.617188 14.820312 36.363281 14.527344 C 36.136719 14.269531 35.894531 13.894531 35.578125 13.753906 C 35.382812 13.667969 35.121094 13.855469 35.257812 14.070312 C 35.453125 14.382812 35.835938 14.617188 36.105469 14.863281 C 36.390625 15.121094 36.671875 15.367188 36.988281 15.585938 C 37.101562 15.664062 37.222656 15.492188 37.132812 15.398438 " fill-opacity="1" fill-rule="nonzero"/></g><path fill="#ffffff" d="M 11.945312 18.371094 C 11.738281 21.523438 11.78125 24.699219 11.738281 27.859375 C 11.699219 30.828125 11.664062 33.800781 11.644531 36.769531 C 11.636719 38.621094 11.625 40.46875 11.675781 42.316406 C 11.683594 42.53125 12.003906 42.53125 12.011719 42.316406 C 12.128906 39.15625 12.101562 35.992188 12.097656 32.828125 C 12.09375 29.859375 12.085938 26.890625 12.074219 23.917969 C 12.0625 22.070312 12.082031 20.21875 11.976562 18.371094 C 11.976562 18.351562 11.945312 18.351562 11.945312 18.371094 " fill-opacity="1" fill-rule="nonzero"/><path fill="#ffffff" d="M 35.980469 18.460938 C 35.773438 21.585938 35.816406 24.738281 35.773438 27.871094 C 35.734375 30.796875 35.699219 33.726562 35.679688 36.65625 C 35.671875 38.496094 35.660156 40.335938 35.710938 42.175781 C 35.71875 42.390625 36.035156 42.390625 36.046875 42.175781 C 36.164062 39.039062 36.136719 35.902344 36.132812 32.765625 C 36.128906 29.835938 36.121094 26.90625 36.109375 23.976562 C 36.097656 22.140625 36.117188 20.296875 36.011719 18.460938 C 36.011719 18.4375 35.980469 18.4375 35.980469 18.460938 " fill-opacity="1" fill-rule="nonzero"/><path fill="#ffffff" d="M 11.582031 42.265625 C 11.710938 42.511719 11.847656 42.746094 12.027344 42.960938 C 12.058594 42.996094 12.117188 43.007812 12.164062 42.996094 C 13.609375 42.589844 15.011719 42.097656 16.484375 41.78125 C 18 41.460938 19.539062 41.234375 21.085938 41.109375 C 24.179688 40.859375 27.316406 41 30.363281 41.609375 C 31.996094 41.933594 33.609375 42.40625 35.171875 42.980469 C 35.375 43.050781 35.515625 42.71875 35.320312 42.632812 C 32.515625 41.398438 29.449219 40.820312 26.40625 40.609375 C 23.261719 40.390625 20.066406 40.589844 16.984375 41.238281 C 15.332031 41.585938 13.578125 41.996094 12.054688 42.738281 C 12.113281 42.746094 12.167969 42.753906 12.226562 42.757812 C 12.027344 42.59375 11.832031 42.417969 11.6875 42.203125 C 11.640625 42.140625 11.542969 42.195312 11.582031 42.265625 " fill-opacity="1" fill-rule="nonzero"/><path fill="#ffffff" d="M 35.976562 42.21875 C 35.890625 42.230469 35.820312 42.277344 35.746094 42.320312 C 35.664062 42.371094 35.574219 42.414062 35.488281 42.464844 C 35.339844 42.550781 35.097656 42.683594 35.152344 42.890625 C 35.160156 42.929688 35.199219 42.972656 35.242188 42.980469 C 35.433594 43.019531 35.59375 42.808594 35.71875 42.6875 C 35.832031 42.578125 36.015625 42.445312 36.027344 42.273438 C 36.03125 42.246094 36.003906 42.214844 35.976562 42.21875 " fill-opacity="1" fill-rule="nonzero"/><path fill="#ffffff" d="M 20.1875 10.988281 C 20.109375 11.484375 20.132812 12.007812 20.136719 12.507812 C 20.140625 12.953125 20.0625 13.546875 20.253906 13.960938 C 20.339844 14.152344 20.578125 14.027344 20.601562 13.867188 C 20.65625 13.421875 20.53125 12.902344 20.511719 12.453125 C 20.492188 11.976562 20.5 11.503906 20.484375 11.027344 C 20.476562 10.867188 20.214844 10.8125 20.1875 10.988281 " fill-opacity="1" fill-rule="nonzero"/><path fill="#ffffff" d="M 27.824219 10.941406 C 27.820312 11.960938 27.625 13.03125 27.757812 14.039062 C 27.78125 14.234375 28.0625 14.246094 28.070312 14.039062 C 28.109375 13.023438 28.082031 11.957031 27.988281 10.941406 C 27.980469 10.839844 27.824219 10.835938 27.824219 10.941406 " fill-opacity="1" fill-rule="nonzero"/><path fill="#ffffff" d="M 20.1875 7.089844 C 20.152344 7.296875 20.183594 7.519531 20.1875 7.730469 C 20.191406 7.902344 20.136719 8.246094 20.285156 8.371094 C 20.355469 8.433594 20.476562 8.453125 20.546875 8.371094 C 20.6875 8.210938 20.589844 7.925781 20.566406 7.730469 C 20.539062 7.523438 20.542969 7.289062 20.476562 7.089844 C 20.4375 6.960938 20.210938 6.933594 20.1875 7.089844 " fill-opacity="1" fill-rule="nonzero"/><path fill="#ffffff" d="M 27.824219 7.070312 C 27.808594 7.269531 27.789062 7.46875 27.765625 7.664062 C 27.75 7.851562 27.710938 8.046875 27.761719 8.230469 C 27.804688 8.367188 28.039062 8.390625 28.0625 8.230469 C 28.097656 8.035156 28.058594 7.828125 28.050781 7.628906 C 28.039062 7.433594 28.023438 7.242188 27.984375 7.050781 C 27.964844 6.953125 27.832031 6.984375 27.824219 7.070312 " fill-opacity="1" fill-rule="nonzero"/><path fill="#ffffff" d="M 19.164062 9.394531 C 19.140625 9.59375 19.128906 9.796875 19.144531 9.996094 C 19.15625 10.109375 19.320312 10.089844 19.300781 9.976562 C 19.265625 9.785156 19.265625 9.585938 19.269531 9.394531 C 19.269531 9.324219 19.171875 9.328125 19.164062 9.394531 " fill-opacity="1" fill-rule="nonzero"/><path fill="#ffffff" d="M 28.839844 9.222656 C 28.808594 9.480469 28.773438 9.738281 28.792969 9.996094 C 28.804688 10.160156 29.035156 10.160156 29.046875 9.996094 C 29.0625 9.738281 29.03125 9.480469 29 9.222656 C 28.984375 9.121094 28.851562 9.121094 28.839844 9.222656 " fill-opacity="1" fill-rule="nonzero"/><path fill="#ffffff" d="M 19.210938 10.109375 C 19.511719 10.25 19.902344 10.222656 20.226562 10.230469 C 21 10.253906 21.773438 10.257812 22.546875 10.257812 C 24.242188 10.25 25.9375 10.246094 27.628906 10.195312 C 28.023438 10.183594 28.417969 10.164062 28.8125 10.15625 C 29.042969 10.15625 29.042969 9.792969 28.8125 9.796875 C 26.046875 9.839844 23.28125 9.800781 20.519531 9.921875 C 20.089844 9.941406 19.632812 9.921875 19.21875 10.046875 C 19.191406 10.054688 19.183594 10.097656 19.210938 10.109375 " fill-opacity="1" fill-rule="nonzero"/><path fill="#ffffff" d="M 19.226562 9.394531 C 21.21875 9.601562 23.261719 9.503906 25.257812 9.464844 C 26.101562 9.445312 26.945312 9.425781 27.785156 9.394531 C 28.101562 9.386719 28.585938 9.335938 28.820312 9.328125 C 28.988281 9.328125 28.988281 9.066406 28.820312 9.070312 C 25.636719 9.125 22.398438 8.902344 19.226562 9.324219 C 19.183594 9.328125 19.183594 9.386719 19.226562 9.394531 " fill-opacity="1" fill-rule="nonzero"/><path fill="#ffffff" d="M 19.578125 9.371094 C 19.839844 9.144531 19.976562 8.777344 20.285156 8.609375 C 20.625 8.425781 21.082031 8.441406 21.457031 8.414062 C 22.320312 8.355469 23.1875 8.335938 24.050781 8.324219 C 24.910156 8.316406 25.769531 8.328125 26.628906 8.351562 C 27.03125 8.367188 27.464844 8.351562 27.859375 8.453125 C 28.253906 8.554688 28.398438 8.894531 28.59375 9.226562 C 28.640625 9.308594 28.769531 9.230469 28.71875 9.15625 C 28.523438 8.882812 28.398438 8.488281 28.125 8.273438 C 27.847656 8.054688 27.398438 8.054688 27.054688 8.015625 C 26.0625 7.90625 25.050781 7.863281 24.050781 7.871094 C 23.058594 7.878906 22.046875 7.910156 21.0625 8.019531 C 20.699219 8.0625 20.277344 8.09375 19.988281 8.339844 C 19.722656 8.566406 19.539062 8.96875 19.445312 9.292969 C 19.421875 9.375 19.523438 9.421875 19.578125 9.371094 " fill-opacity="1" fill-rule="nonzero"/><path fill="#ffffff" d="M 28.601562 9.933594 C 28.335938 10.164062 28.183594 10.507812 27.863281 10.679688 C 27.527344 10.859375 27.101562 10.855469 26.726562 10.882812 C 25.878906 10.949219 25.023438 10.96875 24.171875 10.980469 C 23.304688 10.988281 22.4375 10.976562 21.570312 10.949219 C 21.183594 10.9375 20.773438 10.945312 20.398438 10.851562 C 19.976562 10.746094 19.796875 10.433594 19.585938 10.078125 C 19.535156 10 19.40625 10.078125 19.460938 10.152344 C 19.664062 10.433594 19.820312 10.832031 20.113281 11.039062 C 20.390625 11.234375 20.804688 11.246094 21.132812 11.285156 C 22.136719 11.402344 23.160156 11.445312 24.171875 11.433594 C 25.148438 11.421875 26.144531 11.394531 27.117188 11.277344 C 27.464844 11.234375 27.847656 11.1875 28.136719 10.96875 C 28.425781 10.75 28.632812 10.351562 28.734375 10.011719 C 28.757812 9.929688 28.65625 9.882812 28.601562 9.933594 " fill-opacity="1" fill-rule="nonzero"/><path fill="#ffffff" d="M 16.84375 7.035156 C 17.300781 7.136719 17.796875 7.117188 18.261719 7.132812 C 19.425781 7.171875 20.59375 7.175781 21.757812 7.175781 C 24.371094 7.175781 26.988281 7.171875 29.601562 7.160156 C 30.035156 7.15625 30.472656 7.15625 30.910156 7.152344 C 31.042969 7.152344 31.183594 7.160156 31.316406 7.140625 C 31.347656 7.136719 31.378906 7.132812 31.410156 7.125 C 31.523438 7.109375 31.4375 7.128906 31.386719 7.128906 C 31.675781 7.128906 31.675781 6.679688 31.386719 6.679688 C 31.523438 6.679688 31.445312 6.6875 31.351562 6.675781 C 31.238281 6.660156 31.128906 6.660156 31.015625 6.660156 C 30.675781 6.660156 30.332031 6.660156 29.988281 6.664062 C 28.820312 6.667969 27.65625 6.667969 26.492188 6.671875 C 23.878906 6.679688 21.257812 6.664062 18.648438 6.761719 C 18.058594 6.785156 17.421875 6.757812 16.84375 6.886719 C 16.769531 6.90625 16.769531 7.019531 16.84375 7.035156 " fill-opacity="1" fill-rule="nonzero"/><g clip-path="url(#f5ec562d20)"><path fill="#ffffff" d="M 16.84375 2.21875 C 17.300781 2.316406 17.796875 2.296875 18.261719 2.3125 C 19.425781 2.355469 20.59375 2.355469 21.757812 2.355469 C 24.371094 2.355469 26.988281 2.355469 29.601562 2.339844 C 30.035156 2.339844 30.472656 2.335938 30.910156 2.335938 C 31.042969 2.332031 31.183594 2.34375 31.316406 2.320312 C 31.347656 2.316406 31.378906 2.3125 31.410156 2.308594 C 31.523438 2.292969 31.4375 2.308594 31.386719 2.3125 C 31.675781 2.308594 31.675781 1.859375 31.386719 1.859375 C 31.523438 1.859375 31.445312 1.867188 31.351562 1.855469 C 31.238281 1.839844 31.128906 1.839844 31.015625 1.839844 C 30.675781 1.84375 30.332031 1.84375 29.988281 1.84375 C 28.820312 1.847656 27.65625 1.851562 26.492188 1.855469 C 23.878906 1.863281 21.257812 1.847656 18.648438 1.945312 C 18.058594 1.964844 17.421875 1.9375 16.84375 2.070312 C 16.769531 2.085938 16.769531 2.199219 16.84375 2.21875 " fill-opacity="1" fill-rule="nonzero"/></g><path fill="#ffffff" d="M 15.839844 3.199219 C 15.757812 3.941406 15.703125 4.773438 15.75 5.523438 C 15.765625 5.765625 16.117188 5.765625 16.132812 5.523438 C 16.179688 4.773438 16.125 3.941406 16.042969 3.199219 C 16.027344 3.070312 15.855469 3.070312 15.839844 3.199219 " fill-opacity="1" fill-rule="nonzero"/><path fill="#ffffff" d="M 16.074219 3.277344 C 16.28125 3.140625 16.453125 2.953125 16.636719 2.789062 C 16.757812 2.675781 16.878906 2.566406 16.992188 2.449219 C 17.078125 2.359375 17.078125 2.292969 17.113281 2.207031 C 17.160156 2.082031 17.007812 2.011719 16.910156 2.054688 C 16.953125 2.03125 16.863281 2.066406 16.902344 2.058594 C 16.804688 2.082031 16.757812 2.113281 16.6875 2.1875 C 16.578125 2.304688 16.476562 2.429688 16.375 2.550781 C 16.21875 2.738281 16.042969 2.917969 15.917969 3.125 C 15.859375 3.21875 15.976562 3.34375 16.074219 3.277344 " fill-opacity="1" fill-rule="nonzero"/><path fill="#ffffff" d="M 15.753906 5.578125 C 15.847656 5.765625 15.964844 5.921875 16.089844 6.089844 C 16.304688 6.378906 16.503906 6.691406 16.742188 6.957031 C 16.933594 7.171875 17.21875 6.867188 17.050781 6.652344 C 16.824219 6.367188 16.542969 6.117188 16.289062 5.855469 C 16.152344 5.710938 16.019531 5.585938 15.863281 5.46875 C 15.792969 5.417969 15.722656 5.515625 15.753906 5.578125 " fill-opacity="1" fill-rule="nonzero"/><path fill="#ffffff" d="M 32.421875 3.027344 C 32.335938 3.828125 32.28125 4.71875 32.332031 5.523438 C 32.347656 5.765625 32.699219 5.765625 32.714844 5.523438 C 32.765625 4.71875 32.707031 3.828125 32.625 3.027344 C 32.609375 2.898438 32.4375 2.898438 32.421875 3.027344 " fill-opacity="1" fill-rule="nonzero"/><g clip-path="url(#c0417749ec)"><path fill="#ffffff" d="M 32.546875 2.863281 C 32.398438 2.664062 32.207031 2.496094 32.03125 2.320312 C 31.917969 2.207031 31.804688 2.089844 31.679688 1.980469 C 31.585938 1.898438 31.527344 1.898438 31.433594 1.867188 C 31.3125 1.824219 31.230469 1.96875 31.28125 2.070312 C 31.265625 2.042969 31.285156 2.085938 31.296875 2.113281 C 31.324219 2.179688 31.355469 2.222656 31.410156 2.273438 C 31.53125 2.386719 31.667969 2.488281 31.800781 2.589844 C 31.992188 2.734375 32.179688 2.902344 32.390625 3.019531 C 32.480469 3.070312 32.617188 2.960938 32.546875 2.863281 " fill-opacity="1" fill-rule="nonzero"/></g><path fill="#ffffff" d="M 32.601562 5.46875 C 32.441406 5.585938 32.3125 5.710938 32.175781 5.855469 C 31.921875 6.117188 31.640625 6.367188 31.414062 6.652344 C 31.246094 6.867188 31.53125 7.171875 31.722656 6.957031 C 31.960938 6.691406 32.160156 6.378906 32.371094 6.089844 C 32.496094 5.921875 32.613281 5.765625 32.710938 5.578125 C 32.742188 5.515625 32.667969 5.417969 32.601562 5.46875 " fill-opacity="1" fill-rule="nonzero"/><path fill="#ffffff" d="M 18.925781 19.550781 C 18.878906 22.230469 18.851562 24.90625 18.839844 27.585938 C 18.835938 28.882812 18.8125 30.179688 18.847656 31.476562 C 18.855469 31.761719 18.859375 31.960938 19.195312 31.996094 C 19.839844 32.058594 20.507812 32.027344 21.15625 32.035156 C 23.632812 32.058594 26.113281 32.042969 28.589844 32.035156 C 28.90625 32.035156 28.910156 31.535156 28.589844 31.539062 C 26.425781 31.550781 24.261719 31.5625 22.097656 31.5625 C 21.273438 31.5625 20.453125 31.570312 19.628906 31.5625 C 19.550781 31.558594 19.140625 31.539062 19.136719 31.546875 C 19.136719 31.550781 19.316406 31.683594 19.296875 31.683594 C 19.355469 31.683594 19.269531 31.757812 19.300781 31.691406 C 19.316406 31.65625 19.292969 31.570312 19.289062 31.53125 C 19.152344 28.582031 19.238281 25.617188 19.203125 22.664062 C 19.191406 21.625 19.179688 20.589844 19.167969 19.550781 C 19.167969 19.394531 18.925781 19.394531 18.925781 19.550781 " fill-opacity="1" fill-rule="nonzero"/><path fill="#ffffff" d="M 28.871094 31.800781 C 28.917969 29.125 28.945312 26.445312 28.953125 23.769531 C 28.960938 22.472656 28.984375 21.171875 28.945312 19.875 C 28.9375 19.589844 28.9375 19.394531 28.601562 19.359375 C 27.957031 19.296875 27.285156 19.328125 26.636719 19.320312 C 24.160156 19.296875 21.683594 19.3125 19.207031 19.320312 C 18.886719 19.320312 18.886719 19.816406 19.207031 19.816406 C 21.371094 19.804688 23.535156 19.789062 25.699219 19.789062 C 26.519531 19.789062 27.34375 19.78125 28.164062 19.792969 C 28.246094 19.792969 28.65625 19.816406 28.65625 19.804688 C 28.65625 19.804688 28.480469 19.667969 28.5 19.667969 C 28.441406 19.671875 28.527344 19.597656 28.496094 19.664062 C 28.480469 19.695312 28.503906 19.785156 28.503906 19.824219 C 28.644531 22.773438 28.558594 25.738281 28.59375 28.691406 C 28.605469 29.726562 28.617188 30.765625 28.625 31.800781 C 28.628906 31.960938 28.867188 31.960938 28.871094 31.800781 " fill-opacity="1" fill-rule="nonzero"/></svg>